<svg version="1.1" id="Layer_1" xmlns="http://www.w3.org/2000/svg" xmlns:xlink="http://www.w3.org/1999/xlink" x="0px" y="0px"
	 width="100%" viewBox="0 0 71 58" enable-background="new 0 0 71 58" xml:space="preserve">
<path fill="#050505" opacity="1.000000" stroke="none" 
	d="
M50.000290,59.000000 
	C33.333565,59.000000 17.166903,59.000000 1.000182,59.000000 
	C1.000121,39.666756 1.000121,20.333509 1.000061,1.000197 
	C24.666571,1.000132 48.333141,1.000132 71.999786,1.000066 
	C71.999855,20.333231 71.999855,39.666462 71.999924,58.999847 
	C64.833450,59.000000 57.666901,59.000000 50.000290,59.000000 
M65.387451,43.725582 
	C65.939682,42.543777 66.953850,41.368534 66.970749,40.179127 
	C67.100739,31.030218 67.177139,21.875231 66.959442,12.729527 
	C66.880989,9.433394 64.504906,7.693774 61.229942,7.683892 
	C45.252705,7.635681 29.275164,7.629101 13.297940,7.677092 
	C9.514608,7.688456 7.311337,9.812586 7.253762,13.554026 
	C7.120619,22.206158 6.894444,30.882324 7.449441,39.500870 
	C7.580781,41.540447 10.326385,44.450626 12.432585,45.082169 
	C15.644433,46.045238 19.358065,45.535641 22.834383,45.297466 
	C23.922630,45.222908 24.932734,44.007729 25.978607,43.314655 
	C22.038687,42.326225 18.585434,42.327629 15.132182,42.325821 
	C11.893494,42.324127 10.260077,40.890751 10.307222,37.462799 
	C10.410207,29.974764 10.381296,22.484020 10.320742,14.995075 
	C10.297457,12.115397 11.443115,10.695070 14.440103,10.703315 
	C29.418858,10.744523 44.397820,10.737760 59.376629,10.708261 
	C62.503979,10.702104 63.948647,12.168753 63.937523,15.267889 
	C63.910637,22.757221 63.868965,30.247429 63.957611,37.735809 
	C63.995533,40.939392 62.459412,42.305519 59.432133,42.318321 
	C55.866997,42.333397 52.301746,42.321854 48.736546,42.321854 
	C48.725353,42.907955 48.714157,43.494057 48.702961,44.080162 
	C53.900200,46.204853 59.266781,46.057327 65.387451,43.725582 
M30.777037,42.269791 
	C26.991108,46.478519 23.205181,50.687244 18.819071,55.563179 
	C31.721699,55.563179 43.057163,55.563179 55.576603,55.563179 
	C49.110264,48.357765 43.397594,41.992165 37.287285,35.183475 
	C35.020321,37.646301 33.136337,39.693058 30.777037,42.269791 
z"/>
<path fill="#D7D7D7" opacity="1.000000" stroke="none" 
	d="
M65.072037,43.990810 
	C59.266781,46.057327 53.900200,46.204853 48.702961,44.080162 
	C48.714157,43.494057 48.725353,42.907955 48.736546,42.321854 
	C52.301746,42.321854 55.866997,42.333397 59.432133,42.318321 
	C62.459412,42.305519 63.995533,40.939392 63.957611,37.735809 
	C63.868965,30.247429 63.910637,22.757221 63.937523,15.267889 
	C63.948647,12.168753 62.503979,10.702104 59.376629,10.708261 
	C44.397820,10.737760 29.418858,10.744523 14.440103,10.703315 
	C11.443115,10.695070 10.297457,12.115397 10.320742,14.995075 
	C10.381296,22.484020 10.410207,29.974764 10.307222,37.462799 
	C10.260077,40.890751 11.893494,42.324127 15.132182,42.325821 
	C18.585434,42.327629 22.038687,42.326225 25.978607,43.314655 
	C24.932734,44.007729 23.922630,45.222908 22.834383,45.297466 
	C19.358065,45.535641 15.644433,46.045238 12.432585,45.082169 
	C10.326385,44.450626 7.580781,41.540447 7.449441,39.500870 
	C6.894444,30.882324 7.120619,22.206158 7.253762,13.554026 
	C7.311337,9.812586 9.514608,7.688456 13.297940,7.677092 
	C29.275164,7.629101 45.252705,7.635681 61.229942,7.683892 
	C64.504906,7.693774 66.880989,9.433394 66.959442,12.729527 
	C67.177139,21.875231 67.100739,31.030218 66.970749,40.179127 
	C66.953850,41.368534 65.939682,42.543777 65.072037,43.990810 
z"/>
<path fill="#F8F8F8" opacity="1.000000" stroke="none" 
	d="
M31.014694,42.004803 
	C33.136337,39.693058 35.020321,37.646301 37.287285,35.183475 
	C43.397594,41.992165 49.110264,48.357765 55.576603,55.563179 
	C43.057163,55.563179 31.721699,55.563179 18.819071,55.563179 
	C23.205181,50.687244 26.991108,46.478519 31.014694,42.004803 
z"/>
</svg>