<svg version="1.1" id="Layer_1" xmlns="http://www.w3.org/2000/svg" xmlns:xlink="http://www.w3.org/1999/xlink" x="0px" y="0px"
	 width="100%" viewBox="0 0 158 145" enable-background="new 0 0 158 145" xml:space="preserve">
<path fill="#1C1C1C" opacity="1.000000" stroke="none" 
	d="
M1.000000,123.000000 
	C1.000000,112.645775 1.000000,102.291542 1.468457,91.468338 
	C6.747764,90.998940 11.564942,90.848732 16.367201,91.051620 
	C19.481585,91.183205 21.474596,90.120964 22.621824,87.418427 
	C24.735630,91.000549 26.388863,94.448067 28.543694,97.546761 
	C31.354279,101.588440 35.102165,104.039848 40.263535,101.829453 
	C45.114403,99.752045 49.745514,99.791466 54.588608,102.053108 
	C57.755745,103.532089 60.917362,102.534233 63.041378,99.785133 
	C65.750336,96.278946 68.118118,92.509140 70.719635,89.237869 
	C74.675285,89.758911 78.544258,89.895058 82.545967,90.440376 
	C82.222733,100.534393 88.628769,104.196518 99.799957,101.684715 
	C99.799957,99.602112 99.799957,97.499031 99.799957,95.940926 
	C97.254379,94.963890 95.080048,94.129349 92.929825,92.907806 
	C92.992378,92.004906 93.030807,91.488991 93.481079,90.979721 
	C101.235474,90.658707 108.578033,90.331047 116.101532,90.324631 
	C116.782021,91.867172 117.336845,93.069115 117.772209,94.312874 
	C120.709435,102.704010 120.701317,102.707726 129.375671,101.918365 
	C129.523224,101.904930 129.661163,101.785995 129.804443,101.716629 
	C131.501862,97.465927 133.198395,93.214882 135.204712,89.200043 
	C137.166458,89.957085 138.792587,90.807892 140.475037,90.939674 
	C146.639893,91.422546 152.823471,91.666245 159.000000,92.000000 
	C159.000000,102.020897 159.000000,112.041786 158.531342,122.531174 
	C105.708458,122.999771 53.354229,122.999886 1.000000,123.000000 
z"/>
<path fill="#161616" opacity="1.000000" stroke="none" 
	d="
M1.000000,123.468735 
	C53.354229,122.999886 105.708458,122.999771 158.531342,122.999832 
	C159.000000,130.650192 159.000000,138.300369 159.000000,145.947815 
	C106.333305,145.945084 53.666634,145.945084 1.000000,145.945084 
	C1.000000,138.572601 1.000000,131.255035 1.000000,123.468735 
z"/>
<path fill="#2E2E2E" opacity="1.000000" stroke="none" 
	d="
M1.000000,15.000000 
	C1.000000,10.344610 1.000000,5.689220 1.000005,1.037704 
	C53.666683,1.041578 106.333351,1.041578 159.000000,1.041578 
	C159.000000,5.406018 159.000000,9.728881 158.531342,14.525872 
	C105.708458,15.000000 53.354229,15.000000 1.000000,15.000000 
z"/>
<path fill="#2C2C2C" opacity="1.000000" stroke="none" 
	d="
M1.000000,15.460636 
	C53.354229,15.000000 105.708458,15.000000 158.531342,15.000000 
	C159.000000,18.692909 159.000000,22.385818 158.531342,26.539364 
	C105.708458,27.000000 53.354229,27.000000 1.000000,27.000000 
	C1.000000,23.307091 1.000000,19.614182 1.000000,15.460636 
z"/>
<path fill="#292929" opacity="1.000000" stroke="none" 
	d="
M159.000000,34.000000 
	C159.000000,38.025185 159.000000,42.050365 158.535309,46.537968 
	C157.737762,47.000431 157.397858,46.955929 157.073090,47.007202 
	C152.180328,47.779732 146.345688,44.651878 142.588928,50.602985 
	C142.300766,51.059452 139.674179,50.243092 138.240417,49.725197 
	C136.106186,48.954292 134.104355,47.258957 131.978622,47.137295 
	C127.390846,46.874725 122.735970,47.723053 118.155533,47.415943 
	C115.160789,47.215157 112.718018,46.836967 110.657494,49.695183 
	C110.198341,50.332096 107.906677,49.647926 106.458725,49.571995 
	C106.810287,45.948380 104.147125,47.009315 102.425377,47.194889 
	C100.303276,47.423611 98.233124,48.134235 96.211113,48.619652 
	C93.618462,45.383656 93.618462,45.383656 91.348228,47.332939 
	C88.313629,47.186111 85.692780,47.186111 82.624611,47.186111 
	C82.624611,50.687454 82.624611,53.954502 82.624611,56.834084 
	C80.033157,57.668789 77.959816,58.336617 75.523804,59.015381 
	C73.282196,59.351536 71.403267,59.676754 69.243187,59.770081 
	C64.654053,57.722599 60.346062,55.907013 55.889061,53.799320 
	C55.132172,52.602489 54.524292,51.697765 54.053848,50.486855 
	C55.534260,47.785233 56.877235,45.389793 58.529755,42.888805 
	C58.554474,41.523804 58.269646,40.264355 57.735168,39.006630 
	C57.485523,39.008354 56.999161,38.895397 56.999401,38.533524 
	C56.999763,37.447922 56.999882,36.724190 57.269058,35.755287 
	C62.741062,35.006756 67.941971,34.094002 73.147293,34.068081 
	C101.764267,33.925560 130.382324,34.000015 159.000000,34.000000 
z"/>
<path fill="#2A2A2A" opacity="1.000000" stroke="none" 
	d="
M159.000000,33.562500 
	C130.382324,34.000015 101.764267,33.925560 73.147293,34.068081 
	C67.941971,34.094002 62.741062,35.006756 56.901352,35.743603 
	C52.146027,32.928261 48.045673,36.133778 43.924770,36.076557 
	C29.618917,35.877918 15.308612,35.999950 1.000000,36.000000 
	C1.000000,33.299988 1.000000,30.599974 1.000000,27.449980 
	C53.354229,27.000000 105.708458,27.000000 158.531342,27.000000 
	C159.000000,29.041666 159.000000,31.083334 159.000000,33.562500 
z"/>
<path fill="#282828" opacity="1.000000" stroke="none" 
	d="
M1.000000,36.468658 
	C15.308612,35.999950 29.618917,35.877918 43.924770,36.076557 
	C48.045673,36.133778 52.146027,32.928261 56.632294,35.988773 
	C56.999882,36.724190 56.999763,37.447922 56.646004,38.665131 
	C49.390114,40.668343 46.789433,45.910831 44.824585,52.052689 
	C43.313923,53.115654 42.134354,54.118305 40.503597,55.106140 
	C33.162991,53.714661 27.594465,55.999790 22.855608,60.969547 
	C21.080292,61.322281 19.513933,61.877045 17.987507,62.525757 
	C16.377207,63.210125 14.303521,65.022499 13.302965,64.539268 
	C8.968394,62.445827 5.068794,64.764580 1.000000,65.000000 
	C1.000000,55.645771 1.000000,46.291542 1.000000,36.468658 
z"/>
<path fill="#242424" opacity="1.000000" stroke="none" 
	d="
M91.761971,47.479771 
	C93.618462,45.383656 93.618462,45.383656 96.211113,48.619652 
	C98.233124,48.134235 100.303276,47.423611 102.425377,47.194889 
	C104.147125,47.009315 106.810287,45.948380 106.458725,49.571995 
	C107.906677,49.647926 110.198341,50.332096 110.657494,49.695183 
	C112.718018,46.836967 115.160789,47.215157 118.155533,47.415943 
	C122.735970,47.723053 127.390846,46.874725 131.978622,47.137295 
	C134.104355,47.258957 136.106186,48.954292 138.240417,49.725197 
	C139.674179,50.243092 142.300766,51.059452 142.588928,50.602985 
	C146.345688,44.651878 152.180328,47.779732 157.073090,47.007202 
	C157.397858,46.955929 157.737762,47.000431 158.535309,47.000191 
	C159.000000,49.700012 159.000000,52.400028 158.668015,55.601883 
	C154.490784,58.287270 156.404816,59.689819 159.000000,61.000000 
	C159.000000,62.388889 159.000000,63.777782 158.624237,65.524544 
	C155.165131,65.254707 152.081787,64.626999 148.919815,63.670204 
	C147.894730,62.894180 146.948288,62.447243 145.750229,61.797703 
	C145.258926,61.239799 145.019226,60.884495 144.801834,60.175247 
	C144.907425,59.128849 144.990692,58.436398 145.039398,57.367958 
	C143.405167,56.010414 141.497772,53.928318 140.268646,54.272003 
	C137.549622,55.032288 133.426254,53.518551 131.910278,58.448837 
	C133.633286,58.268753 134.842041,58.142418 135.990692,58.390285 
	C132.527191,69.583252 129.123810,80.402023 125.720444,91.220787 
	C125.231422,91.201477 124.742409,91.182175 124.253395,91.162872 
	C121.437706,81.438332 118.622025,71.713791 116.167969,61.988373 
	C117.551315,61.720646 118.573036,61.453793 119.594757,61.186935 
	C119.378860,60.648891 119.162971,60.110844 118.947075,59.572800 
	C117.864853,60.304935 116.782639,61.037075 115.452652,61.461136 
	C113.810005,59.928131 112.415123,58.703205 111.014557,57.137794 
	C110.449272,55.941837 109.889671,55.086361 109.330063,54.230888 
	C108.546333,55.317337 107.762611,56.403782 106.651352,57.602959 
	C105.863235,58.144211 105.402641,58.572735 104.589371,58.946316 
	C102.848221,58.586922 101.459747,58.282475 99.629654,57.876083 
	C97.357910,57.751038 95.450241,58.022141 93.733276,57.569622 
	C92.976303,57.370113 92.606720,55.700768 92.393982,54.980507 
	C93.498375,55.311680 94.270058,55.361069 95.041733,55.410454 
	C94.912460,54.858521 94.783188,54.306583 94.653915,53.754646 
	C93.829315,54.042313 93.004715,54.329979 91.933281,54.214539 
	C91.711617,51.700874 91.736794,49.590324 91.761971,47.479771 
M121.514641,53.169891 
	C120.787643,52.190067 120.060646,51.210239 119.333656,50.230412 
	C118.714516,50.860565 118.095367,51.490719 117.476219,52.120869 
	C118.652618,52.626839 119.829018,53.132809 121.514641,53.169891 
M152.508133,57.156441 
	C152.826736,57.095737 153.145325,57.035038 153.463928,56.974339 
	C153.147675,56.902081 152.831421,56.829823 152.508133,57.156441 
M150.843430,59.507938 
	C150.904144,59.826649 150.964874,60.145359 151.025589,60.464069 
	C151.097870,60.147705 151.170151,59.831341 150.843430,59.507938 
z"/>
<path fill="#222222" opacity="1.000000" stroke="none" 
	d="
M144.779510,60.529190 
	C145.019226,60.884495 145.258926,61.239799 145.662567,62.053566 
	C146.883835,63.007782 147.941132,63.503536 148.998444,63.999287 
	C152.081787,64.626999 155.165131,65.254707 158.624237,65.941208 
	C159.000000,74.354233 159.000000,82.708466 159.000000,91.531342 
	C152.823471,91.666245 146.639893,91.422546 140.475037,90.939674 
	C138.792587,90.807892 137.166458,89.957085 135.229675,88.821449 
	C138.223099,78.980827 141.501297,69.755005 144.779510,60.529190 
z"/>
<path fill="#222222" opacity="1.000000" stroke="none" 
	d="
M1.000000,65.468651 
	C5.068794,64.764580 8.968394,62.445827 13.302965,64.539268 
	C14.303521,65.022499 16.377207,63.210125 17.987507,62.525757 
	C19.513933,61.877045 21.080292,61.322281 22.704926,61.297276 
	C18.200045,70.218643 19.840235,78.666565 22.384338,87.128677 
	C21.474596,90.120964 19.481585,91.183205 16.367201,91.051620 
	C11.564942,90.848732 6.747764,90.998940 1.468457,90.999680 
	C1.000000,82.645767 1.000000,74.291534 1.000000,65.468651 
z"/>
<path fill="#292929" opacity="1.000000" stroke="none" 
	d="
M159.000000,60.583336 
	C156.404816,59.689819 154.490784,58.287270 158.668015,56.051861 
	C159.000000,57.388889 159.000000,58.777779 159.000000,60.583336 
z"/>
<path fill="#F6F6F6" opacity="1.000000" stroke="none" 
	d="
M22.621824,87.418427 
	C19.840235,78.666565 18.200045,70.218643 22.931446,61.540619 
	C27.594465,55.999790 33.162991,53.714661 40.669701,55.454815 
	C46.682587,59.330563 51.186539,55.226467 56.038074,54.091427 
	C60.346062,55.907013 64.654053,57.722599 69.203583,60.139271 
	C60.460938,69.766914 60.639889,75.649971 69.946754,85.016060 
	C70.699867,85.773964 70.428352,87.550026 70.632965,88.852966 
	C68.118118,92.509140 65.750336,96.278946 63.041378,99.785133 
	C60.917362,102.534233 57.755745,103.532089 54.588608,102.053108 
	C49.745514,99.791466 45.114403,99.752045 40.263535,101.829453 
	C35.102165,104.039848 31.354279,101.588440 28.543694,97.546761 
	C26.388863,94.448067 24.735630,91.000549 22.621824,87.418427 
z"/>
<path fill="#F2F2F2" opacity="1.000000" stroke="none" 
	d="
M144.801834,60.175247 
	C141.501297,69.755005 138.223099,78.980827 134.919907,88.585236 
	C133.198395,93.214882 131.501862,97.465927 129.804443,101.716629 
	C129.661163,101.785995 129.523224,101.904930 129.375671,101.918365 
	C120.701317,102.707726 120.709435,102.704010 117.772209,94.312874 
	C117.336845,93.069115 116.782021,91.867172 116.111862,89.953690 
	C112.274849,79.174736 108.608444,69.087997 104.942047,59.001259 
	C105.402641,58.572735 105.863235,58.144211 107.046173,57.714424 
	C108.852425,57.634869 109.936333,57.556572 111.020241,57.478279 
	C112.415123,58.703205 113.810005,59.928131 115.438690,61.535606 
	C115.672485,61.918156 115.806343,61.989246 115.806343,61.989246 
	C118.622025,71.713791 121.437706,81.438332 124.253395,91.162872 
	C124.742409,91.182175 125.231422,91.201477 125.720444,91.220787 
	C129.123810,80.402023 132.527191,69.583252 136.431885,58.297169 
	C139.646790,57.801212 142.360367,57.772575 145.073959,57.743942 
	C144.990692,58.436398 144.907425,59.128849 144.801834,60.175247 
z"/>
<path fill="#EFEFEF" opacity="1.000000" stroke="none" 
	d="
M92.061264,54.698727 
	C92.606720,55.700768 92.976303,57.370113 93.733276,57.569622 
	C95.450241,58.022141 97.357910,57.751038 99.628632,58.317070 
	C100.069221,60.742764 100.069221,62.625523 100.069221,64.521263 
	C97.216805,64.706650 95.110573,64.843536 92.671928,64.953133 
	C92.187943,65.295219 92.036377,65.664597 91.761528,66.486328 
	C91.713486,74.615189 91.788712,82.291718 91.798660,90.339935 
	C92.124153,91.572685 92.514938,92.433746 92.905716,93.294807 
	C95.080048,94.129349 97.254379,94.963890 99.799957,95.940926 
	C99.799957,97.499031 99.799957,99.602112 99.799957,101.684715 
	C88.628769,104.196518 82.222733,100.534393 82.650429,89.980186 
	C82.609802,81.797516 82.597450,74.484207 82.720413,66.902733 
	C82.767975,66.205376 82.680206,65.776184 82.592438,65.346992 
	C82.387230,65.468491 82.182014,65.589996 81.723633,65.755882 
	C81.314285,65.870758 81.158112,65.941254 80.620178,65.902931 
	C74.647270,66.184807 76.534584,61.782063 75.886475,59.004440 
	C77.959816,58.336617 80.033157,57.668789 82.624611,56.834084 
	C82.624611,53.954502 82.624611,50.687454 82.624611,47.186111 
	C85.692780,47.186111 88.313629,47.186111 91.348228,47.332939 
	C91.736794,49.590324 91.711617,51.700874 91.970734,54.208450 
	C92.255020,54.605473 92.061264,54.698727 92.061264,54.698727 
z"/>
<path fill="#222222" opacity="1.000000" stroke="none" 
	d="
M91.863937,89.968239 
	C91.788712,82.291718 91.713486,74.615189 91.988739,66.356346 
	C92.560936,65.509491 92.782639,65.244957 93.004341,64.980431 
	C95.110573,64.843536 97.216805,64.706650 100.069221,64.521263 
	C100.069221,62.625523 100.069221,60.742764 100.070244,58.419014 
	C101.459747,58.282475 102.848221,58.586922 104.589371,58.946312 
	C108.608444,69.087997 112.274849,79.174736 115.930923,89.632431 
	C108.578033,90.331047 101.235474,90.658707 93.320877,90.767235 
	C92.453880,90.354813 92.158905,90.161530 91.863937,89.968239 
z"/>
<path fill="#232323" opacity="1.000000" stroke="none" 
	d="
M75.523804,59.015377 
	C76.534584,61.782063 74.647270,66.184807 80.726837,66.094391 
	C81.377617,66.642921 81.582535,66.848824 82.009232,67.097473 
	C82.188461,67.182564 82.585091,67.170898 82.585091,67.170898 
	C82.597450,74.484207 82.609802,81.797516 82.517700,89.571014 
	C78.544258,89.895058 74.675285,89.758911 70.719635,89.237869 
	C70.428352,87.550026 70.699867,85.773964 69.946754,85.016060 
	C60.639889,75.649971 60.460938,69.766914 69.484726,60.371162 
	C71.403267,59.676754 73.282196,59.351536 75.523804,59.015377 
z"/>
<path fill="#0D0D0D" opacity="1.000000" stroke="none" 
	d="
M91.798660,90.339935 
	C92.158905,90.161530 92.453880,90.354813 92.909042,90.760590 
	C93.030807,91.488991 92.992378,92.004906 92.929825,92.907806 
	C92.514938,92.433746 92.124153,91.572685 91.798660,90.339935 
z"/>
<path fill="#EDEDED" opacity="1.000000" stroke="none" 
	d="
M45.155682,51.992382 
	C46.789433,45.910831 49.390114,40.668343 56.645763,39.027000 
	C56.999161,38.895397 57.485523,39.008354 57.866463,39.388786 
	C58.238342,40.844265 58.229279,41.919308 58.220215,42.994354 
	C56.877235,45.389793 55.534260,47.785233 53.725021,50.610794 
	C50.624390,51.925739 48.385788,56.181076 45.155682,51.992382 
z"/>
<path fill="#242424" opacity="1.000000" stroke="none" 
	d="
M44.824585,52.052689 
	C48.385788,56.181076 50.624390,51.925739 53.587585,50.916977 
	C54.524292,51.697765 55.132172,52.602489 55.889061,53.799320 
	C51.186539,55.226467 46.682587,59.330563 41.120895,55.469635 
	C42.134354,54.118305 43.313923,53.115654 44.824585,52.052689 
z"/>
<path fill="#242424" opacity="1.000000" stroke="none" 
	d="
M58.529755,42.888805 
	C58.229279,41.919308 58.238342,40.844265 58.116112,39.387062 
	C58.269646,40.264355 58.554474,41.523804 58.529755,42.888805 
z"/>
<path fill="#292929" opacity="1.000000" stroke="none" 
	d="
M145.039398,57.367958 
	C142.360367,57.772575 139.646790,57.801212 136.492004,57.922962 
	C134.842041,58.142418 133.633286,58.268753 131.910278,58.448837 
	C133.426254,53.518551 137.549622,55.032288 140.268646,54.272003 
	C141.497772,53.928318 143.405167,56.010414 145.039398,57.367958 
z"/>
<path fill="#292929" opacity="1.000000" stroke="none" 
	d="
M121.260025,53.404335 
	C119.829018,53.132809 118.652618,52.626839 117.476219,52.120869 
	C118.095367,51.490719 118.714516,50.860565 119.333656,50.230412 
	C120.060646,51.210239 120.787643,52.190067 121.260025,53.404335 
z"/>
<path fill="#292929" opacity="1.000000" stroke="none" 
	d="
M111.014557,57.137794 
	C109.936333,57.556572 108.852425,57.634869 107.373703,57.601696 
	C107.762611,56.403782 108.546333,55.317337 109.330063,54.230888 
	C109.889671,55.086361 110.449272,55.941837 111.014557,57.137794 
z"/>
<path fill="#292929" opacity="1.000000" stroke="none" 
	d="
M116.167969,61.988373 
	C115.806343,61.989246 115.672485,61.918156 115.686447,61.843685 
	C116.782639,61.037075 117.864853,60.304935 118.947075,59.572800 
	C119.162971,60.110844 119.378860,60.648891 119.594757,61.186935 
	C118.573036,61.453793 117.551315,61.720646 116.167969,61.988373 
z"/>
<path fill="#292929" opacity="1.000000" stroke="none" 
	d="
M148.919815,63.670204 
	C147.941132,63.503536 146.883835,63.007782 145.914185,62.256165 
	C146.948288,62.447243 147.894730,62.894180 148.919815,63.670204 
z"/>
<path fill="#292929" opacity="1.000000" stroke="none" 
	d="
M92.393982,54.980507 
	C92.061264,54.698727 92.255020,54.605473 92.217567,54.611557 
	C93.004715,54.329979 93.829315,54.042313 94.653915,53.754646 
	C94.783188,54.306583 94.912460,54.858521 95.041733,55.410454 
	C94.270058,55.361069 93.498375,55.311680 92.393982,54.980507 
z"/>
<path fill="#292929" opacity="1.000000" stroke="none" 
	d="
M152.511658,56.957005 
	C152.831421,56.829823 153.147675,56.902081 153.463928,56.974339 
	C153.145325,57.035038 152.826736,57.095737 152.511658,56.957005 
z"/>
<path fill="#292929" opacity="1.000000" stroke="none" 
	d="
M151.042938,59.511459 
	C151.170151,59.831341 151.097870,60.147705 151.025604,60.464066 
	C150.964874,60.145359 150.904144,59.826649 151.042938,59.511459 
z"/>
<path fill="#6E6E6E" opacity="1.000000" stroke="none" 
	d="
M82.720413,66.902733 
	C82.585091,67.170898 82.188461,67.182564 82.032516,66.770737 
	C81.909981,66.143105 81.943390,65.927299 81.976807,65.711494 
	C82.182014,65.589996 82.387230,65.468491 82.592438,65.346992 
	C82.680206,65.776184 82.767975,66.205376 82.720413,66.902733 
z"/>
<path fill="#0D0D0D" opacity="1.000000" stroke="none" 
	d="
M92.671928,64.953133 
	C92.782639,65.244957 92.560936,65.509491 92.112015,65.904007 
	C92.036377,65.664597 92.187943,65.295219 92.671928,64.953133 
z"/>
<path fill="#1C1C1C" opacity="1.000000" stroke="none" 
	d="
M81.723633,65.755882 
	C81.943390,65.927299 81.909981,66.143105 81.853294,66.685638 
	C81.582535,66.848824 81.377617,66.642921 81.108597,66.203201 
	C81.158112,65.941254 81.314285,65.870758 81.723633,65.755882 
z"/>
</svg>