<svg version="1.1" id="Layer_1" xmlns="http://www.w3.org/2000/svg" xmlns:xlink="http://www.w3.org/1999/xlink" x="0px" y="0px"
	 width="100%" viewBox="0 0 94 70" enable-background="new 0 0 94 70" xml:space="preserve">
<path fill="#020202" opacity="1.000000" stroke="none" 
	d="
M61.000000,71.000000 
	C40.666672,71.000000 20.833340,71.000000 1.000008,71.000000 
	C1.000005,47.666676 1.000005,24.333349 1.000003,1.000017 
	C32.333321,1.000012 63.666641,1.000012 94.999969,1.000006 
	C94.999985,24.333315 94.999985,47.666630 94.999992,70.999969 
	C83.833336,71.000000 72.666664,71.000000 61.000000,71.000000 
M73.133247,20.098341 
	C73.663864,20.400703 74.194489,20.703068 74.995171,21.737852 
	C76.495377,26.520187 77.995583,31.302523 79.024010,36.660908 
	C81.210907,42.433907 76.919235,43.194317 72.629707,44.449883 
	C72.289429,44.675644 71.999191,44.623196 70.874199,44.117561 
	C69.250488,44.408539 67.626770,44.699520 65.068100,44.913486 
	C51.613888,44.907383 38.159019,44.969486 24.706009,44.839195 
	C21.924572,44.812256 19.071489,44.344830 16.394083,43.580627 
	C13.619375,42.788647 11.765778,41.005573 12.806177,37.612579 
	C13.240740,36.195370 13.353764,34.679565 14.260765,32.762638 
	C14.900896,30.417206 15.541027,28.071774 16.411255,24.883272 
	C11.962733,27.002050 11.962733,27.002050 11.407156,33.413490 
	C10.996023,35.619026 10.584890,37.824562 9.862275,40.765270 
	C9.966459,45.497711 10.070642,50.230156 10.121235,55.705681 
	C10.733994,56.478138 11.346751,57.250595 11.999947,58.000038 
	C11.999947,58.000038 11.964343,58.030003 11.261965,58.591797 
	C12.496422,59.404762 13.730879,60.217724 14.999682,61.000473 
	C14.999682,61.000473 14.986842,61.044315 14.836941,61.836418 
	C16.584070,62.319710 18.317518,63.158627 20.080631,63.226460 
	C29.040905,63.571163 38.008915,63.884712 46.974117,63.882130 
	C55.439468,63.879688 63.938683,63.829967 72.350273,63.033203 
	C75.041252,62.778309 77.500076,60.072483 79.990463,58.518944 
	C79.990463,58.518944 80.014099,58.596207 80.706024,57.972469 
	C80.937355,50.598186 81.168678,43.223900 81.701180,35.390491 
	C81.060287,34.928116 80.419388,34.465736 79.845291,33.313919 
	C78.332222,28.384516 76.819153,23.455111 74.909874,17.883549 
	C74.490425,17.624640 74.070969,17.365732 73.068314,17.090021 
	C71.738701,16.978773 70.409096,16.867523 68.938187,16.224895 
	C68.292793,16.145786 67.647392,16.066675 66.255638,15.821106 
	C65.502197,15.886767 64.748749,15.952429 63.068409,15.872751 
	C51.048695,15.926692 39.028980,15.980633 26.218584,15.827560 
	C24.523634,16.537014 22.828686,17.246469 20.454802,18.018503 
	C14.839155,18.764845 14.839155,18.764845 15.313264,24.128754 
	C17.678261,22.226759 19.900288,20.439747 22.785053,18.577471 
	C24.256014,18.365730 25.726974,18.153992 28.038940,18.033880 
	C40.016914,17.979788 51.994892,17.925695 64.723816,18.198519 
	C67.486679,18.674402 70.249550,19.150284 73.133247,20.098341 
M50.733982,33.909576 
	C50.898148,32.125732 51.602543,30.123083 51.005005,28.647743 
	C50.693024,27.877462 48.097313,27.899738 46.519714,27.816080 
	C45.243034,27.748375 43.815331,27.767797 42.692818,28.275366 
	C41.385132,28.866669 40.336658,30.031239 39.175697,30.947039 
	C40.297947,32.009602 41.284100,33.724003 42.572056,33.992912 
	C44.926079,34.484398 47.458633,34.120792 50.733982,33.909576 
z"/>
<path fill="#080808" opacity="1.000000" stroke="none" 
	d="
M80.014099,58.596207 
	C80.014099,58.596207 79.990463,58.518944 79.700577,58.140903 
	C75.578468,58.933926 71.746552,61.103455 67.913979,61.104637 
	C50.560387,61.109993 33.206696,60.498413 15.852118,60.155704 
	C15.569653,60.150124 15.275527,60.734985 14.986843,61.044315 
	C14.986842,61.044315 14.999682,61.000473 15.268727,60.701569 
	C14.346629,59.611778 13.155486,58.820889 11.964343,58.030003 
	C11.964343,58.030003 11.999947,58.000038 12.404900,57.741852 
	C12.613575,53.422314 12.417296,49.360966 12.215055,45.176250 
	C16.260267,45.892788 19.644171,46.971905 23.040127,47.011276 
	C38.328575,47.188538 53.621105,47.133739 68.910179,46.973442 
	C70.661392,46.955082 72.400177,45.752552 74.450706,45.282150 
	C76.416550,45.389381 78.076416,45.313553 80.014099,45.225029 
	C80.014099,49.847607 80.014099,54.221905 80.014099,58.596207 
z"/>
<path fill="#D1D1D1" opacity="1.000000" stroke="none" 
	d="
M74.144730,45.099083 
	C72.400177,45.752552 70.661392,46.955082 68.910179,46.973442 
	C53.621105,47.133739 38.328575,47.188538 23.040127,47.011276 
	C19.644171,46.971905 16.260267,45.892788 12.215055,45.176250 
	C12.417296,49.360966 12.613575,53.422314 12.384682,57.753357 
	C11.346751,57.250595 10.733994,56.478138 10.371225,54.998108 
	C10.472063,49.537060 10.322910,44.783577 10.173758,40.030098 
	C10.584890,37.824562 10.996023,35.619026 11.961076,33.295502 
	C12.880991,33.187870 13.246987,33.198231 13.612984,33.208588 
	C13.353764,34.679565 13.240740,36.195370 12.806177,37.612579 
	C11.765778,41.005573 13.619375,42.788647 16.394083,43.580627 
	C19.071489,44.344830 21.924572,44.812256 24.706009,44.839195 
	C38.159019,44.969486 51.613888,44.907383 65.695953,45.310379 
	C68.135536,45.235691 69.947273,44.764118 71.759010,44.292542 
	C71.999191,44.623196 72.289429,44.675644 73.027679,44.528732 
	C73.688972,44.736862 73.928658,44.900692 74.144730,45.099083 
z"/>
<path fill="#D1D1D1" opacity="1.000000" stroke="none" 
	d="
M14.911892,61.440369 
	C15.275527,60.734985 15.569653,60.150124 15.852118,60.155704 
	C33.206696,60.498413 50.560387,61.109993 67.913979,61.104637 
	C71.746552,61.103455 75.578468,58.933926 79.737900,58.125458 
	C77.500076,60.072483 75.041252,62.778309 72.350273,63.033203 
	C63.938683,63.829967 55.439468,63.879688 46.974117,63.882130 
	C38.008915,63.884712 29.040905,63.571163 20.080631,63.226460 
	C18.317518,63.158627 16.584070,62.319710 14.911892,61.440369 
z"/>
<path fill="#E7E7E7" opacity="1.000000" stroke="none" 
	d="
M50.325356,34.011703 
	C47.458633,34.120792 44.926079,34.484398 42.572056,33.992912 
	C41.284100,33.724003 40.297947,32.009602 39.175697,30.947041 
	C40.336658,30.031239 41.385132,28.866669 42.692818,28.275366 
	C43.815331,27.767797 45.243034,27.748375 46.519714,27.816080 
	C48.097313,27.899738 50.693024,27.877462 51.005005,28.647743 
	C51.602543,30.123083 50.898148,32.125732 50.325356,34.011703 
z"/>
<path fill="#E6E6E6" opacity="1.000000" stroke="none" 
	d="
M63.972862,17.871605 
	C51.994892,17.925695 40.016914,17.979788 27.565996,17.511667 
	C27.065125,16.671162 27.037195,16.352867 27.009264,16.034573 
	C39.028980,15.980633 51.048695,15.926692 63.535095,16.254635 
	C63.992138,17.048216 63.982502,17.459909 63.972862,17.871605 
z"/>
<path fill="#C9C9C9" opacity="1.000000" stroke="none" 
	d="
M79.495789,36.084858 
	C77.995583,31.302523 76.495377,26.520187 74.988060,21.042522 
	C75.089325,19.740032 75.197701,19.132870 75.306076,18.525707 
	C76.819153,23.455111 78.332222,28.384516 79.427353,33.954643 
	C79.312523,35.077415 79.615646,35.559460 79.821106,36.131241 
	C79.723450,36.220974 79.495789,36.084858 79.495789,36.084858 
z"/>
<path fill="#F6F6F6" opacity="1.000000" stroke="none" 
	d="
M79.259903,36.372883 
	C79.495789,36.084858 79.723450,36.220974 80.186844,36.047935 
	C80.900162,35.866474 81.150085,35.858044 81.400002,35.849617 
	C81.168678,43.223900 80.937355,50.598186 80.360062,58.284340 
	C80.014099,54.221905 80.014099,49.847607 80.014099,45.225029 
	C78.076416,45.313553 76.416550,45.389381 74.450706,45.282146 
	C73.928658,44.900692 73.688972,44.736862 73.262146,44.463398 
	C76.919235,43.194317 81.210907,42.433907 79.259903,36.372883 
z"/>
<path fill="#9F9F9F" opacity="1.000000" stroke="none" 
	d="
M10.018017,40.397682 
	C10.322910,44.783577 10.472063,49.537060 10.398022,54.626568 
	C10.070642,50.230156 9.966459,45.497711 10.018017,40.397682 
z"/>
<path fill="#050505" opacity="1.000000" stroke="none" 
	d="
M13.936874,32.985611 
	C13.246987,33.198231 12.880991,33.187870 12.257137,33.066200 
	C11.962733,27.002050 11.962733,27.002050 16.411255,24.883272 
	C15.541027,28.071774 14.900896,30.417206 13.936874,32.985611 
z"/>
<path fill="#050505" opacity="1.000000" stroke="none" 
	d="
M22.122314,18.652735 
	C19.900288,20.439747 17.678261,22.226759 15.313264,24.128754 
	C14.839155,18.764845 14.839155,18.764845 21.027948,17.990662 
	C21.964203,18.049725 22.137943,18.279697 22.122314,18.652735 
z"/>
<path fill="#BFBFBF" opacity="1.000000" stroke="none" 
	d="
M64.348343,18.035061 
	C63.982502,17.459909 63.992138,17.048216 63.998543,16.327305 
	C64.748749,15.952429 65.502197,15.886767 66.731407,16.212753 
	C67.831276,16.655025 68.455383,16.705650 69.079483,16.756275 
	C70.409096,16.867523 71.738701,16.978773 73.390968,17.432829 
	C73.479889,18.392481 73.246147,19.009323 73.012413,19.626165 
	C70.249550,19.150284 67.486679,18.674402 64.348343,18.035061 
z"/>
<path fill="#BFBFBF" opacity="1.000000" stroke="none" 
	d="
M22.453684,18.615103 
	C22.137943,18.279697 21.964203,18.049725 21.367416,17.959372 
	C22.828686,17.246469 24.523634,16.537014 26.613924,15.931067 
	C27.037195,16.352867 27.065125,16.671162 27.145493,17.465853 
	C25.726974,18.153992 24.256014,18.365730 22.453684,18.615103 
z"/>
<path fill="#080808" opacity="1.000000" stroke="none" 
	d="
M71.316605,44.205051 
	C69.947273,44.764118 68.135536,45.235691 66.163429,45.348885 
	C67.626770,44.699520 69.250488,44.408539 71.316605,44.205051 
z"/>
<path fill="#050505" opacity="1.000000" stroke="none" 
	d="
M73.072830,19.862253 
	C73.246147,19.009323 73.479889,18.392481 73.682571,17.441231 
	C74.070969,17.365732 74.490425,17.624640 75.107971,18.204628 
	C75.197701,19.132870 75.089325,19.740032 74.853027,20.676311 
	C74.194489,20.703068 73.663864,20.400703 73.072830,19.862253 
z"/>
<path fill="#D1D1D1" opacity="1.000000" stroke="none" 
	d="
M11.613153,58.310898 
	C13.155486,58.820889 14.346629,59.611778 15.251554,60.716675 
	C13.730879,60.217724 12.496422,59.404762 11.613153,58.310898 
z"/>
<path fill="#050505" opacity="1.000000" stroke="none" 
	d="
M81.550591,35.620056 
	C81.150085,35.858044 80.900162,35.866474 80.284500,35.958202 
	C79.615646,35.559460 79.312523,35.077415 79.393951,34.299362 
	C80.419388,34.465736 81.060287,34.928116 81.550591,35.620056 
z"/>
<path fill="#353535" opacity="1.000000" stroke="none" 
	d="
M69.008835,16.490585 
	C68.455383,16.705650 67.831276,16.655025 67.104584,16.295982 
	C67.647392,16.066675 68.292793,16.145786 69.008835,16.490585 
z"/>
</svg>