<svg version="1.1" id="Layer_1" xmlns="http://www.w3.org/2000/svg" xmlns:xlink="http://www.w3.org/1999/xlink" x="0px" y="0px"
	 width="100%" viewBox="0 0 108 78" enable-background="new 0 0 108 78" xml:space="preserve">
<path fill="#020202" opacity="1.000000" stroke="none" 
	d="
M70.000000,79.000000 
	C46.666672,79.000000 23.833342,79.000000 1.000009,79.000000 
	C1.000006,53.000008 1.000006,27.000017 1.000003,1.000020 
	C36.999985,1.000013 72.999969,1.000013 108.999969,1.000007 
	C108.999977,26.999979 108.999977,52.999958 108.999985,78.999969 
	C96.166664,79.000000 83.333336,79.000000 70.000000,79.000000 
M85.721275,67.868187 
	C95.057007,67.261185 99.685860,62.601135 97.510384,53.579678 
	C95.079834,43.500469 90.866951,33.841377 87.276451,24.055696 
	C85.507133,19.233553 81.634003,16.931936 76.715805,16.007292 
	C63.169052,13.460440 49.542664,13.365528 36.005123,15.489166 
	C31.852709,16.140560 26.390747,17.800629 24.352259,20.872606 
	C17.343298,31.435020 12.650399,43.279850 11.462304,56.069530 
	C10.697897,64.298264 18.201803,69.981400 26.026897,67.182907 
	C28.946520,66.138763 31.909801,63.841034 33.696609,61.301239 
	C37.059418,56.521290 41.099430,54.827805 46.811371,55.257851 
	C52.767315,55.706276 58.795654,55.592575 64.768654,55.276730 
	C68.857849,55.060493 71.722221,56.381310 74.103775,59.655193 
	C76.844032,63.422176 79.762772,67.154694 85.721275,67.868187 
z"/>
<path fill="#FAFAFA" opacity="1.000000" stroke="none" 
	d="
M85.322601,67.830475 
	C79.762772,67.154694 76.844032,63.422176 74.103775,59.655193 
	C71.722221,56.381310 68.857849,55.060493 64.768654,55.276730 
	C58.795654,55.592575 52.767315,55.706276 46.811371,55.257851 
	C41.099430,54.827805 37.059418,56.521290 33.696609,61.301239 
	C31.909801,63.841034 28.946520,66.138763 26.026897,67.182907 
	C18.201803,69.981400 10.697897,64.298264 11.462304,56.069530 
	C12.650399,43.279850 17.343298,31.435020 24.352259,20.872606 
	C26.390747,17.800629 31.852709,16.140560 36.005123,15.489166 
	C49.542664,13.365528 63.169052,13.460440 76.715805,16.007292 
	C81.634003,16.931936 85.507133,19.233553 87.276451,24.055696 
	C90.866951,33.841377 95.079834,43.500469 97.510384,53.579678 
	C99.685860,62.601135 95.057007,67.261185 85.322601,67.830475 
M43.018833,41.330555 
	C42.178055,37.211487 45.067085,37.917641 47.519882,37.561184 
	C48.678436,37.392815 49.659328,36.001938 50.720715,35.164970 
	C49.678207,34.361168 48.743797,33.245838 47.564381,32.836597 
	C46.247162,32.379539 44.707554,32.563385 44.714191,32.563824 
	C42.916653,29.419678 41.680592,27.257639 40.444534,25.095602 
	C39.333439,27.395597 38.222347,29.695593 37.150745,31.913841 
	C35.067924,32.798546 32.691742,33.807858 30.315559,34.817169 
	C32.698975,36.238472 35.082390,37.659775 37.243916,38.948761 
	C38.232204,40.882832 39.318153,43.008026 40.404102,45.133221 
	C41.272671,44.156708 42.141239,43.180195 43.018833,41.330555 
M72.624001,34.539299 
	C75.644585,34.497231 77.617950,33.039131 77.006615,29.973631 
	C76.723640,28.554672 74.928459,26.472683 73.759125,26.432562 
	C72.201408,26.379118 69.248215,28.058992 69.271683,28.930248 
	C69.321220,30.768612 70.915436,32.565353 72.624001,34.539299 
M60.891876,36.465881 
	C59.230602,39.212212 59.422016,41.757271 62.626328,42.834118 
	C63.990993,43.292728 66.528923,42.683331 67.358650,41.631962 
	C68.195702,40.571323 68.192642,37.286800 67.470451,36.872707 
	C65.831551,35.932991 63.524799,36.158051 60.891876,36.465881 
z"/>
<path fill="#181818" opacity="1.000000" stroke="none" 
	d="
M43.014320,41.767120 
	C42.141239,43.180195 41.272671,44.156708 40.404102,45.133221 
	C39.318153,43.008026 38.232204,40.882832 37.243916,38.948761 
	C35.082390,37.659775 32.698975,36.238472 30.315559,34.817169 
	C32.691742,33.807858 35.067924,32.798546 37.150745,31.913841 
	C38.222347,29.695593 39.333439,27.395597 40.444534,25.095602 
	C41.680592,27.257639 42.916653,29.419678 44.714191,32.563824 
	C44.707554,32.563385 46.247162,32.379539 47.564381,32.836597 
	C48.743797,33.245838 49.678207,34.361168 50.720715,35.164970 
	C49.659328,36.001938 48.678436,37.392815 47.519882,37.561184 
	C45.067085,37.917641 42.178055,37.211487 43.014320,41.767120 
z"/>
<path fill="#161616" opacity="1.000000" stroke="none" 
	d="
M72.249954,34.459236 
	C70.915436,32.565353 69.321220,30.768612 69.271683,28.930248 
	C69.248215,28.058992 72.201408,26.379118 73.759125,26.432562 
	C74.928459,26.472683 76.723640,28.554672 77.006615,29.973631 
	C77.617950,33.039131 75.644585,34.497231 72.249954,34.459236 
z"/>
<path fill="#0E0E0E" opacity="1.000000" stroke="none" 
	d="
M61.190720,36.187729 
	C63.524799,36.158051 65.831551,35.932991 67.470451,36.872707 
	C68.192642,37.286800 68.195702,40.571323 67.358650,41.631962 
	C66.528923,42.683331 63.990993,43.292728 62.626328,42.834118 
	C59.422016,41.757271 59.230602,39.212212 61.190720,36.187729 
z"/>
</svg>