<svg version="1.1" id="Layer_1" xmlns="http://www.w3.org/2000/svg" xmlns:xlink="http://www.w3.org/1999/xlink" x="0px" y="0px"
	 width="100%" viewBox="0 0 111 88" enable-background="new 0 0 111 88" xml:space="preserve">
<path fill="#040404" opacity="1.000000" stroke="none" 
	d="
M66.000000,89.000000 
	C44.000004,89.000000 22.500008,89.000000 1.000009,89.000000 
	C1.000006,59.666676 1.000006,30.333351 1.000003,1.000021 
	C37.999985,1.000014 74.999969,1.000014 111.999969,1.000007 
	C111.999977,30.333313 111.999977,59.666626 111.999985,88.999969 
	C96.833336,89.000000 81.666664,89.000000 66.000000,89.000000 
M105.228737,65.490234 
	C105.227997,48.994339 105.138412,32.497662 105.283920,16.003056 
	C105.324409,11.413147 103.754402,9.244335 98.946175,9.259169 
	C71.286629,9.344500 43.626606,9.331999 15.966949,9.266925 
	C11.622188,9.256702 9.558045,10.886395 9.582222,15.456073 
	C9.687126,35.283936 9.691494,55.113037 9.577760,74.940804 
	C9.551566,79.507195 11.520490,81.323082 15.921236,81.071724 
	C18.246399,80.938911 20.585403,81.048607 22.918159,81.048615 
	C47.412090,81.048630 71.906021,81.049370 96.399948,81.048218 
	C105.113510,81.047806 105.224808,80.931549 105.228531,71.982491 
	C105.229294,70.149612 105.228699,68.316734 105.228737,65.490234 
z"/>
<path fill="#E4E4E4" opacity="1.000000" stroke="none" 
	d="
M105.228737,65.987045 
	C105.228699,68.316734 105.229294,70.149612 105.228531,71.982491 
	C105.224808,80.931549 105.113510,81.047806 96.399948,81.048218 
	C71.906021,81.049370 47.412090,81.048630 22.918159,81.048615 
	C20.585403,81.048607 18.246399,80.938911 15.921236,81.071724 
	C11.520490,81.323082 9.551566,79.507195 9.577760,74.940804 
	C9.691494,55.113037 9.687126,35.283936 9.582222,15.456073 
	C9.558045,10.886395 11.622188,9.256702 15.966949,9.266925 
	C43.626606,9.331999 71.286629,9.344500 98.946175,9.259169 
	C103.754402,9.244335 105.324409,11.413147 105.283920,16.003056 
	C105.138412,32.497662 105.227997,48.994339 105.228737,65.987045 
M12.727044,16.490309 
	C12.727044,36.877724 12.727044,57.265137 12.727044,77.760025 
	C42.834515,77.760025 72.209557,77.760025 101.857819,77.760025 
	C101.857819,55.970512 101.857819,34.436577 101.857819,13.107187 
	C101.465050,12.806589 101.339943,12.626909 101.214149,12.626423 
	C72.608757,12.515845 44.003254,12.389180 15.398175,12.452656 
	C14.506352,12.454633 13.618904,14.427266 12.727044,16.490309 
z"/>
<path fill="#010101" opacity="1.000000" stroke="none" 
	d="
M12.728230,15.985746 
	C13.618904,14.427266 14.506352,12.454633 15.398175,12.452656 
	C44.003254,12.389180 72.608757,12.515845 101.214149,12.626423 
	C101.339943,12.626909 101.465050,12.806589 101.857819,13.107187 
	C101.857819,34.436577 101.857819,55.970512 101.857819,77.760025 
	C72.209557,77.760025 42.834515,77.760025 12.727044,77.760025 
	C12.727044,57.265137 12.727044,36.877724 12.728230,15.985746 
z"/>
</svg>