<svg version="1.1" id="Layer_1" xmlns="http://www.w3.org/2000/svg" xmlns:xlink="http://www.w3.org/1999/xlink" x="0px" y="0px"
	 width="100%" viewBox="0 0 109 59" enable-background="new 0 0 109 59" xml:space="preserve">
<path fill="#050505" opacity="1.000000" stroke="none" 
	d="
M79.000000,60.000000 
	C52.666672,60.000000 26.833342,60.000000 1.000010,60.000000 
	C1.000007,40.333340 1.000007,20.666683 1.000003,1.000018 
	C37.333317,1.000012 73.666634,1.000012 109.999969,1.000006 
	C109.999977,20.666649 109.999977,40.333298 109.999985,59.999973 
	C99.833336,60.000000 89.666664,60.000000 79.000000,60.000000 
M42.897537,57.986740 
	C44.101933,57.648682 45.306328,57.310623 47.345016,56.931744 
	C64.058144,56.611488 80.771263,56.291233 96.887978,56.801716 
	C102.468369,59.629826 107.000099,56.184635 107.552544,48.070030 
	C107.458611,37.669502 107.364677,27.268972 107.487320,16.109577 
	C106.647713,10.991999 103.579529,8.680125 97.598511,9.022567 
	C71.913040,8.993846 46.227577,8.965125 19.585928,8.864963 
	C16.878281,9.237138 14.170634,9.609314 11.152972,10.010283 
	C10.943530,10.018780 10.738174,9.993751 9.735103,9.899572 
	C8.453434,12.780100 6.259493,15.606484 6.084638,18.552700 
	C5.746065,24.257467 6.769439,30.028458 6.801295,35.774368 
	C6.827508,40.502457 5.889546,45.242813 6.009843,49.961647 
	C6.149076,55.423279 10.813310,58.965641 15.835882,57.898163 
	C16.184732,57.824020 16.297350,56.638382 17.183525,55.944401 
	C18.290230,55.958103 19.396935,55.971809 20.315128,56.080448 
	C20.315128,56.080448 20.241396,56.446060 20.586121,57.763580 
	C25.565855,57.860741 30.545591,57.957897 36.181782,57.986050 
	C37.281075,58.001446 38.380367,58.016846 40.329750,58.144993 
	C40.895206,58.076694 41.460663,58.008400 42.897537,57.986740 
z"/>
<path fill="#030303" opacity="1.000000" stroke="none" 
	d="
M20.542109,8.936403 
	C46.227577,8.965125 71.913040,8.993846 97.694229,9.346429 
	C98.402596,10.247250 98.965469,11.251410 99.636230,11.329557 
	C103.129234,11.736525 104.645012,13.922370 105.237671,17.507435 
	C105.223396,28.304731 105.271538,38.640186 105.179230,49.337090 
	C105.076424,54.867474 100.709625,54.731789 97.484390,55.970978 
	C80.771263,56.291233 64.058144,56.611488 46.732449,56.438141 
	C45.086792,55.923809 44.053703,55.903084 42.961662,55.891045 
	C42.902710,55.899731 42.565701,55.844215 41.453041,55.832542 
	C39.991699,56.475624 39.643017,57.130379 39.334015,57.799881 
	C39.373692,57.814621 39.479660,58.032242 39.479660,58.032242 
	C38.380367,58.016846 37.281075,58.001446 36.231606,57.623329 
	C35.399654,56.627129 34.535755,55.481945 33.632946,55.450401 
	C30.077204,55.326157 26.509233,55.551994 22.517094,55.499496 
	C21.560139,55.562565 21.031889,55.774036 20.503639,55.985512 
	C19.396935,55.971809 18.290230,55.958103 16.571583,55.660408 
	C12.959557,55.198601 9.471997,55.324139 8.827292,51.512951 
	C8.280099,48.278202 6.241269,44.322140 11.105988,42.101418 
	C11.783689,41.792049 12.081404,40.096821 12.114882,39.029331 
	C12.234231,35.223701 12.231191,31.410173 12.121854,27.604021 
	C12.090911,26.526854 11.844671,25.193251 11.175727,24.440882 
	C7.605562,20.425497 7.294600,16.522114 10.305763,12.144683 
	C10.674408,11.608771 10.473740,10.681239 10.536906,9.935195 
	C10.738174,9.993751 10.943530,10.018780 11.072630,10.414667 
	C14.048815,10.908784 17.105604,11.025816 20.160994,10.996610 
	C20.294584,10.995334 20.415361,9.653687 20.542109,8.936403 
z"/>
<path fill="#EEEEEE" opacity="1.000000" stroke="none" 
	d="
M10.136004,9.917383 
	C10.473740,10.681239 10.674408,11.608771 10.305763,12.144683 
	C7.294600,16.522114 7.605562,20.425497 11.175727,24.440882 
	C11.844671,25.193251 12.090911,26.526854 12.121854,27.604021 
	C12.231191,31.410173 12.234231,35.223701 12.114882,39.029331 
	C12.081404,40.096821 11.783689,41.792049 11.105988,42.101418 
	C6.241269,44.322140 8.280099,48.278202 8.827292,51.512951 
	C9.471997,55.324139 12.959557,55.198601 16.239731,55.673019 
	C16.297350,56.638382 16.184732,57.824020 15.835882,57.898163 
	C10.813310,58.965641 6.149076,55.423279 6.009843,49.961647 
	C5.889546,45.242813 6.827508,40.502457 6.801295,35.774368 
	C6.769439,30.028458 5.746065,24.257467 6.084638,18.552700 
	C6.259493,15.606484 8.453434,12.780100 10.136004,9.917383 
z"/>
<path fill="#FEFEFE" opacity="1.000000" stroke="none" 
	d="
M105.319687,48.975639 
	C105.271538,38.640186 105.223396,28.304731 105.568222,17.509884 
	C106.397713,16.989809 106.834229,16.929127 107.270752,16.868444 
	C107.364677,27.268972 107.458611,37.669502 107.149742,48.502251 
	C106.271187,48.948196 105.795441,48.961918 105.319687,48.975639 
z"/>
<path fill="#FFFFFF" opacity="1.000000" stroke="none" 
	d="
M22.945801,55.647903 
	C26.509233,55.551994 30.077204,55.326157 33.632946,55.450401 
	C34.535755,55.481945 35.399654,56.627129 35.903381,57.657829 
	C30.545591,57.957897 25.565855,57.860741 21.198063,57.251408 
	C22.188604,56.375454 22.567202,56.011677 22.945801,55.647903 
z"/>
<path fill="#EEEEEE" opacity="1.000000" stroke="none" 
	d="
M105.179230,49.337090 
	C105.795441,48.961918 106.271187,48.948196 106.985107,48.939453 
	C107.000099,56.184635 102.468369,59.629826 97.186188,56.386345 
	C100.709625,54.731789 105.076424,54.867474 105.179230,49.337090 
z"/>
<path fill="#DEDEDE" opacity="1.000000" stroke="none" 
	d="
M107.379028,16.489010 
	C106.834229,16.929127 106.397713,16.989809 105.630638,17.048042 
	C104.645012,13.922370 103.129234,11.736525 99.636230,11.329557 
	C98.965469,11.251410 98.402596,10.247250 98.127815,9.306974 
	C103.579529,8.680125 106.647713,10.991999 107.379028,16.489010 
z"/>
<path fill="#EEEEEE" opacity="1.000000" stroke="none" 
	d="
M20.064018,8.900683 
	C20.415361,9.653687 20.294584,10.995334 20.160994,10.996610 
	C17.105604,11.025816 14.048815,10.908784 11.227638,10.400270 
	C14.170634,9.609314 16.878281,9.237138 20.064018,8.900683 
z"/>
<path fill="#FFFFFF" opacity="1.000000" stroke="none" 
	d="
M43.020615,55.882355 
	C44.053703,55.903084 45.086792,55.923809 46.315300,56.458549 
	C45.306328,57.310623 44.101933,57.648682 41.784096,57.832794 
	C40.211880,57.714279 39.753105,57.749706 39.294334,57.785137 
	C39.643017,57.130379 39.991699,56.475624 41.558441,55.946953 
	C42.776497,56.073040 43.020615,55.882355 43.020615,55.882355 
z"/>
<path fill="#EEEEEE" opacity="1.000000" stroke="none" 
	d="
M22.517094,55.499496 
	C22.567202,56.011677 22.188604,56.375454 21.025702,56.592648 
	C20.241396,56.446060 20.315128,56.080448 20.409384,56.032982 
	C21.031889,55.774036 21.560139,55.562565 22.517094,55.499496 
z"/>
<path fill="#A8A8A8" opacity="1.000000" stroke="none" 
	d="
M39.334015,57.799881 
	C39.753105,57.749706 40.211880,57.714279 41.348385,57.809475 
	C41.460663,58.008400 40.895206,58.076694 39.904705,58.088615 
	C39.479660,58.032242 39.373692,57.814621 39.334015,57.799881 
z"/>
<path fill="#A8A8A8" opacity="1.000000" stroke="none" 
	d="
M42.961662,55.891045 
	C43.020615,55.882355 42.776497,56.073040 42.671097,55.958626 
	C42.565701,55.844215 42.902710,55.899731 42.961662,55.891045 
z"/>
</svg>