<svg version="1.1" id="Layer_1" xmlns="http://www.w3.org/2000/svg" xmlns:xlink="http://www.w3.org/1999/xlink" x="0px" y="0px"
	 width="100%" viewBox="0 0 141 80" enable-background="new 0 0 141 80" xml:space="preserve">
<path fill="#010101" opacity="1.000000" stroke="none" 
	d="
M98.000000,81.000000 
	C65.333336,81.000000 33.166668,81.000000 1.000000,81.000000 
	C1.000000,54.333332 1.000000,27.666666 1.000000,1.000000 
	C48.000000,1.000000 95.000000,1.000000 142.000000,1.000000 
	C142.000000,27.666666 142.000000,54.333332 142.000000,81.000000 
	C127.500000,81.000000 113.000000,81.000000 98.000000,81.000000 
M86.499992,74.042557 
	C100.649147,73.724495 114.801521,73.499809 128.944794,73.011467 
	C131.857498,72.910896 134.736221,71.826576 137.630615,71.195686 
	C137.546555,70.731308 137.462479,70.266930 137.378418,69.802551 
	C133.832153,69.802551 130.285889,69.802551 126.636101,69.802551 
	C126.636101,51.164158 126.554947,33.007034 126.692795,14.851577 
	C126.727524,10.277203 125.171371,8.054752 120.371849,8.065513 
	C89.385887,8.134982 58.399670,8.079484 27.413614,8.120997 
	C22.024517,8.128217 20.871504,9.449428 20.866400,15.082754 
	C20.851305,31.741940 20.860878,48.401150 20.860804,65.060349 
	C20.860796,66.661591 20.860804,68.262840 20.860804,70.252907 
	C16.722504,70.252907 13.210089,70.252907 9.697673,70.252907 
	C9.692855,70.715096 9.688036,71.177284 9.683218,71.639473 
	C34.796482,75.988876 60.226433,73.270485 86.499992,74.042557 
z"/>
<path fill="#EAEAEA" opacity="1.000000" stroke="none" 
	d="
M85.999985,74.042557 
	C60.226433,73.270485 34.796482,75.988876 9.683218,71.639473 
	C9.688036,71.177284 9.692855,70.715096 9.697673,70.252907 
	C13.210089,70.252907 16.722504,70.252907 20.860804,70.252907 
	C20.860804,68.262840 20.860796,66.661591 20.860804,65.060349 
	C20.860878,48.401150 20.851305,31.741940 20.866400,15.082754 
	C20.871504,9.449428 22.024517,8.128217 27.413614,8.120997 
	C58.399670,8.079484 89.385887,8.134982 120.371849,8.065513 
	C125.171371,8.054752 126.727524,10.277203 126.692795,14.851577 
	C126.554947,33.007034 126.636101,51.164158 126.636101,69.802551 
	C130.285889,69.802551 133.832153,69.802551 137.378418,69.802551 
	C137.462479,70.266930 137.546555,70.731308 137.630615,71.195686 
	C134.736221,71.826576 131.857498,72.910896 128.944794,73.011467 
	C114.801521,73.499809 100.649147,73.724495 85.999985,74.042557 
M23.928082,20.540184 
	C23.928082,36.957184 23.928082,53.374184 23.928082,69.816811 
	C57.415436,69.816811 90.325760,69.816811 123.234329,69.816811 
	C123.234329,50.209335 123.234329,30.832230 123.234329,11.383760 
	C90.027420,11.383760 57.139599,11.383760 23.928082,11.383760 
	C23.928082,14.281900 23.928082,16.917580 23.928082,20.540184 
z"/>
<path fill="#020202" opacity="1.000000" stroke="none" 
	d="
M23.928082,20.046722 
	C23.928082,16.917580 23.928082,14.281900 23.928082,11.383760 
	C57.139599,11.383760 90.027420,11.383760 123.234329,11.383760 
	C123.234329,30.832230 123.234329,50.209335 123.234329,69.816811 
	C90.325760,69.816811 57.415436,69.816811 23.928082,69.816811 
	C23.928082,53.374184 23.928082,36.957184 23.928082,20.046722 
z"/>
</svg>