<svg version="1.1" id="Layer_1" xmlns="http://www.w3.org/2000/svg" xmlns:xlink="http://www.w3.org/1999/xlink" x="0px" y="0px"
	 width="100%" viewBox="0 0 105 94" enable-background="new 0 0 105 94" xml:space="preserve">
<path fill="#010101" opacity="1.000000" stroke="none" 
	d="
M61.000000,95.000000 
	C40.666672,95.000000 20.833340,95.000000 1.000008,95.000000 
	C1.000005,63.666676 1.000005,32.333351 1.000003,1.000021 
	C35.999985,1.000014 70.999969,1.000014 105.999969,1.000007 
	C105.999977,32.333313 105.999977,63.666626 105.999985,94.999969 
	C91.166664,95.000000 76.333336,95.000000 61.000000,95.000000 
M79.015053,44.786407 
	C78.123146,35.027061 75.980324,33.051243 66.205772,33.040009 
	C55.546967,33.027763 44.888134,33.037228 34.229317,33.037224 
	C16.835518,33.037220 14.516412,35.582493 15.889664,53.165405 
	C16.498285,60.958107 19.023228,63.448364 26.904181,63.518894 
	C38.394810,63.621731 49.887020,63.548515 61.378555,63.548985 
	C78.008018,63.549664 79.205673,62.339554 79.015053,44.786407 
M83.085411,46.810131 
	C83.085411,50.045910 83.085411,53.281689 83.085411,58.074471 
	C87.495811,56.570263 92.775566,56.343678 94.416710,53.784100 
	C96.194504,51.011410 95.974922,45.055744 94.030106,42.364334 
	C92.286224,39.950989 87.016266,40.085590 83.059685,39.031609 
	C83.059685,42.309174 83.059685,44.107700 83.085411,46.810131 
z"/>
<path fill="#FAFAFA" opacity="1.000000" stroke="none" 
	d="
M79.028831,45.247814 
	C79.205673,62.339554 78.008018,63.549664 61.378555,63.548985 
	C49.887020,63.548515 38.394810,63.621731 26.904181,63.518894 
	C19.023228,63.448364 16.498285,60.958107 15.889664,53.165405 
	C14.516412,35.582493 16.835518,33.037220 34.229317,33.037224 
	C44.888134,33.037228 55.546967,33.027763 66.205772,33.040009 
	C75.980324,33.051243 78.123146,35.027061 79.028831,45.247814 
M26.239397,40.079277 
	C23.129555,40.274750 22.014215,42.064404 23.403702,44.653324 
	C23.849277,45.483532 26.637358,46.076103 27.436493,45.501579 
	C29.640097,43.917355 29.176310,41.881882 26.239397,40.079277 
z"/>
<path fill="#F1F1F1" opacity="1.000000" stroke="none" 
	d="
M83.072548,46.358177 
	C83.059685,44.107700 83.059685,42.309174 83.059685,39.031609 
	C87.016266,40.085590 92.286224,39.950989 94.030106,42.364334 
	C95.974922,45.055744 96.194504,51.011410 94.416710,53.784100 
	C92.775566,56.343678 87.495811,56.570263 83.085411,58.074471 
	C83.085411,53.281689 83.085411,50.045910 83.072548,46.358177 
z"/>
<path fill="#191919" opacity="1.000000" stroke="none" 
	d="
M26.615704,40.194099 
	C29.176310,41.881882 29.640097,43.917355 27.436493,45.501579 
	C26.637358,46.076103 23.849277,45.483532 23.403702,44.653324 
	C22.014215,42.064404 23.129555,40.274750 26.615704,40.194099 
z"/>
</svg>