<svg version="1.1" id="Layer_1" xmlns="http://www.w3.org/2000/svg" xmlns:xlink="http://www.w3.org/1999/xlink" x="0px" y="0px"
	 width="100%" viewBox="0 0 134 110" enable-background="new 0 0 134 110" xml:space="preserve">
<path fill="#020202" opacity="1.000000" stroke="none" 
	d="
M98.000000,111.000000 
	C65.366318,111.000000 33.232639,111.000000 1.049480,111.000000 
	C1.049480,74.403976 1.049480,37.807873 1.049480,1.105883 
	C45.550049,1.105883 90.100433,1.105883 134.825409,1.105883 
	C134.825409,37.665970 134.825409,74.332932 134.825409,111.000000 
	C122.808327,111.000000 110.654167,111.000000 98.000000,111.000000 
M66.499992,85.939514 
	C77.817566,85.938644 89.135666,86.004677 100.452530,85.914467 
	C108.625832,85.849319 111.228806,83.258751 111.278984,75.112778 
	C111.362030,61.632038 111.337585,48.150295 111.290520,34.669212 
	C111.259399,25.756638 108.622826,23.113960 99.629242,23.097130 
	C75.662659,23.052275 51.695869,23.048771 27.729305,23.098148 
	C18.782068,23.116583 16.082285,25.847227 16.050398,34.749557 
	C16.003304,47.897766 16.006861,61.046371 16.048908,74.194618 
	C16.078445,83.431046 18.619333,85.904228 28.052092,85.929771 
	C40.534637,85.963577 53.017345,85.938995 66.499992,85.939514 
M72.474930,98.022064 
	C75.303276,98.021973 78.178230,98.327148 80.942139,97.905075 
	C82.550407,97.659492 83.980629,96.247948 85.490959,95.361031 
	C83.964287,94.517639 82.450272,92.970802 80.908920,92.943077 
	C69.432892,92.736618 57.949696,92.736176 46.473774,92.945953 
	C44.952930,92.973755 43.460430,94.552147 41.954800,95.412422 
	C43.478706,96.281364 44.981430,97.855110 46.530064,97.901672 
	C54.841240,98.151512 63.163853,98.021126 72.474930,98.022064 
z"/>
<path fill="#EEEEEE" opacity="1.000000" stroke="none" 
	d="
M65.999985,85.939514 
	C53.017345,85.938995 40.534637,85.963577 28.052092,85.929771 
	C18.619333,85.904228 16.078445,83.431046 16.048908,74.194618 
	C16.006861,61.046371 16.003304,47.897766 16.050398,34.749557 
	C16.082285,25.847227 18.782068,23.116583 27.729305,23.098148 
	C51.695869,23.048771 75.662659,23.052275 99.629242,23.097130 
	C108.622826,23.113960 111.259399,25.756638 111.290520,34.669212 
	C111.337585,48.150295 111.362030,61.632038 111.278984,75.112778 
	C111.228806,83.258751 108.625832,85.849319 100.452530,85.914467 
	C89.135666,86.004677 77.817566,85.938644 65.999985,85.939514 
M39.502472,28.652245 
	C35.341270,28.653580 31.176283,28.766119 27.019957,28.624451 
	C22.999033,28.487394 21.340601,30.196590 21.376116,34.254818 
	C21.494091,47.736057 21.502087,61.219738 21.373421,74.700775 
	C21.332838,78.952698 23.061897,80.732269 27.285784,80.721382 
	C51.586998,80.658737 75.888504,80.666466 100.189789,80.712112 
	C104.365623,80.719948 106.121925,78.995186 106.066833,74.687790 
	C105.900833,61.706993 106.017326,48.722698 106.004562,35.739780 
	C105.998039,29.105734 105.590637,28.670872 98.924980,28.662386 
	C79.450615,28.637594 59.976200,28.652737 39.502472,28.652245 
z"/>
<path fill="#F3F3F3" opacity="1.000000" stroke="none" 
	d="
M71.978722,98.022064 
	C63.163853,98.021126 54.841240,98.151512 46.530064,97.901672 
	C44.981430,97.855110 43.478706,96.281364 41.954803,95.412430 
	C43.460430,94.552147 44.952930,92.973755 46.473774,92.945953 
	C57.949696,92.736176 69.432892,92.736618 80.908920,92.943077 
	C82.450272,92.970802 83.964287,94.517639 85.490959,95.361031 
	C83.980629,96.247948 82.550407,97.659492 80.942139,97.905075 
	C78.178230,98.327148 75.303276,98.021973 71.978722,98.022064 
z"/>
<path fill="#030303" opacity="1.000000" stroke="none" 
	d="
M40.002140,28.652237 
	C59.976200,28.652737 79.450615,28.637594 98.924980,28.662386 
	C105.590637,28.670872 105.998039,29.105734 106.004562,35.739780 
	C106.017326,48.722698 105.900833,61.706993 106.066833,74.687790 
	C106.121925,78.995186 104.365623,80.719948 100.189789,80.712112 
	C75.888504,80.666466 51.586998,80.658737 27.285784,80.721382 
	C23.061897,80.732269 21.332838,78.952698 21.373421,74.700775 
	C21.502087,61.219738 21.494091,47.736057 21.376116,34.254818 
	C21.340601,30.196590 22.999033,28.487394 27.019957,28.624451 
	C31.176283,28.766119 35.341270,28.653580 40.002140,28.652237 
z"/>
</svg>